solid OpenSCAD_Model
  facet normal -1 0 0
    outer loop
      vertex 0 12 0
      vertex 0 6.95106 13.691
      vertex 0 12 17
    endloop
  endfacet
  facet normal -1 0 0
    outer loop
      vertex 0 12 0
      vertex 0 6.58778 13.191
      vertex 0 6.95106 13.691
    endloop
  endfacet
  facet normal -1 0 0
    outer loop
      vertex 0 12 0
      vertex 0 6 13
      vertex 0 6.58778 13.191
    endloop
  endfacet
  facet normal -1 0 0
    outer loop
      vertex 0 0 0
      vertex 0 6 13
      vertex 0 12 0
    endloop
  endfacet
  facet normal -1 -0 0
    outer loop
      vertex 0 6 13
      vertex 0 0 0
      vertex 0 5.41221 13.191
    endloop
  endfacet
  facet normal -1 0 0
    outer loop
      vertex 0 0 17
      vertex 0 5.04894 13.691
      vertex 0 0 0
    endloop
  endfacet
  facet normal -1 -0 0
    outer loop
      vertex 0 5.41221 13.191
      vertex 0 0 0
      vertex 0 5.04894 13.691
    endloop
  endfacet
  facet normal -1 0 0
    outer loop
      vertex 0 6.95106 14.309
      vertex 0 12 17
      vertex 0 6.95106 13.691
    endloop
  endfacet
  facet normal -1 0 0
    outer loop
      vertex 0 6.58778 14.809
      vertex 0 12 17
      vertex 0 6.95106 14.309
    endloop
  endfacet
  facet normal -1 0 0
    outer loop
      vertex 0 6 15
      vertex 0 12 17
      vertex 0 6.58778 14.809
    endloop
  endfacet
  facet normal -1 0 0
    outer loop
      vertex 0 0 17
      vertex 0 6 15
      vertex 0 5.41221 14.809
    endloop
  endfacet
  facet normal -1 0 0
    outer loop
      vertex 0 6 15
      vertex 0 0 17
      vertex 0 12 17
    endloop
  endfacet
  facet normal -1 0 0
    outer loop
      vertex 0 5.04894 14.309
      vertex 0 0 17
      vertex 0 5.41221 14.809
    endloop
  endfacet
  facet normal -1 0 0
    outer loop
      vertex 0 5.04894 13.691
      vertex 0 0 17
      vertex 0 5.04894 14.309
    endloop
  endfacet
  facet normal -0 0 1
    outer loop
      vertex 0 12 17
      vertex 3 0 17
      vertex 3 12 17
    endloop
  endfacet
  facet normal 0 0 1
    outer loop
      vertex 3 0 17
      vertex 0 12 17
      vertex 0 0 17
    endloop
  endfacet
  facet normal 1 0 0
    outer loop
      vertex 3 6.95106 13.691
      vertex 3 12 17
      vertex 3 6.95106 14.309
    endloop
  endfacet
  facet normal 1 0 0
    outer loop
      vertex 3 12 17
      vertex 3 6.58778 14.809
      vertex 3 6.95106 14.309
    endloop
  endfacet
  facet normal 1 0 0
    outer loop
      vertex 3 12 17
      vertex 3 6 15
      vertex 3 6.58778 14.809
    endloop
  endfacet
  facet normal 1 -0 0
    outer loop
      vertex 3 0 17
      vertex 3 6 15
      vertex 3 12 17
    endloop
  endfacet
  facet normal 1 0 0
    outer loop
      vertex 3 5.04894 14.309
      vertex 3 0 17
      vertex 3 5.04894 13.691
    endloop
  endfacet
  facet normal 1 0 0
    outer loop
      vertex 3 5.41221 14.809
      vertex 3 0 17
      vertex 3 5.04894 14.309
    endloop
  endfacet
  facet normal 1 0 0
    outer loop
      vertex 3 6 15
      vertex 3 0 17
      vertex 3 5.41221 14.809
    endloop
  endfacet
  facet normal 1 0 0
    outer loop
      vertex 3 12 17
      vertex 3 6.95106 13.691
      vertex 3 12 3
    endloop
  endfacet
  facet normal 1 -0 0
    outer loop
      vertex 3 6.58778 13.191
      vertex 3 12 3
      vertex 3 6.95106 13.691
    endloop
  endfacet
  facet normal 1 -0 0
    outer loop
      vertex 3 6 13
      vertex 3 12 3
      vertex 3 6.58778 13.191
    endloop
  endfacet
  facet normal 1 0 0
    outer loop
      vertex 3 0 3
      vertex 3 6 13
      vertex 3 5.41221 13.191
    endloop
  endfacet
  facet normal 1 0 0
    outer loop
      vertex 3 0 3
      vertex 3 5.41221 13.191
      vertex 3 5.04894 13.691
    endloop
  endfacet
  facet normal 1 0 0
    outer loop
      vertex 3 0 3
      vertex 3 5.04894 13.691
      vertex 3 0 17
    endloop
  endfacet
  facet normal 1 0 0
    outer loop
      vertex 3 6 13
      vertex 3 0 3
      vertex 3 12 3
    endloop
  endfacet
  facet normal 0 0 -1
    outer loop
      vertex 0 0 0
      vertex 43.5 12 0
      vertex 43.5 0 0
    endloop
  endfacet
  facet normal -0 0 -1
    outer loop
      vertex 43.5 12 0
      vertex 0 0 0
      vertex 0 12 0
    endloop
  endfacet
  facet normal 0 -1 0
    outer loop
      vertex 0 0 17
      vertex 3 0 3
      vertex 3 0 17
    endloop
  endfacet
  facet normal 0 -1 -0
    outer loop
      vertex 3 0 3
      vertex 0 0 0
      vertex 40.5 0 3
    endloop
  endfacet
  facet normal 0 -1 0
    outer loop
      vertex 0 0 0
      vertex 3 0 3
      vertex 0 0 17
    endloop
  endfacet
  facet normal 0 -1 0
    outer loop
      vertex 40.5 0 3
      vertex 43.5 0 17
      vertex 40.5 0 17
    endloop
  endfacet
  facet normal 0 -1 0
    outer loop
      vertex 40.5 0 3
      vertex 43.5 0 0
      vertex 43.5 0 17
    endloop
  endfacet
  facet normal 0 -1 0
    outer loop
      vertex 43.5 0 0
      vertex 40.5 0 3
      vertex 0 0 0
    endloop
  endfacet
  facet normal 0 1 0
    outer loop
      vertex 43.5 12 17
      vertex 40.5 12 3
      vertex 40.5 12 17
    endloop
  endfacet
  facet normal 0 1 0
    outer loop
      vertex 40.5 12 3
      vertex 43.5 12 0
      vertex 3 12 3
    endloop
  endfacet
  facet normal 0 1 -0
    outer loop
      vertex 43.5 12 0
      vertex 40.5 12 3
      vertex 43.5 12 17
    endloop
  endfacet
  facet normal 0 1 -0
    outer loop
      vertex 3 12 3
      vertex 0 12 17
      vertex 3 12 17
    endloop
  endfacet
  facet normal 0 1 0
    outer loop
      vertex 3 12 3
      vertex 0 12 0
      vertex 0 12 17
    endloop
  endfacet
  facet normal 0 1 0
    outer loop
      vertex 0 12 0
      vertex 3 12 3
      vertex 43.5 12 0
    endloop
  endfacet
  facet normal 0 -0.309017 0.951057
    outer loop
      vertex 0 6.58778 13.191
      vertex 3 6 13
      vertex 3 6.58778 13.191
    endloop
  endfacet
  facet normal 0 -0.309017 0.951057
    outer loop
      vertex 3 6 13
      vertex 0 6.58778 13.191
      vertex 0 6 13
    endloop
  endfacet
  facet normal 0 -0.309018 -0.951056
    outer loop
      vertex 0 6 15
      vertex 3 6.58778 14.809
      vertex 3 6 15
    endloop
  endfacet
  facet normal -0 -0.309018 -0.951056
    outer loop
      vertex 3 6.58778 14.809
      vertex 0 6 15
      vertex 0 6.58778 14.809
    endloop
  endfacet
  facet normal 0 1 -0
    outer loop
      vertex 3 5.04894 13.691
      vertex 0 5.04894 14.309
      vertex 3 5.04894 14.309
    endloop
  endfacet
  facet normal 0 1 0
    outer loop
      vertex 0 5.04894 14.309
      vertex 3 5.04894 13.691
      vertex 0 5.04894 13.691
    endloop
  endfacet
  facet normal 0 -1 0
    outer loop
      vertex 0 6.95106 13.691
      vertex 3 6.95106 14.309
      vertex 0 6.95106 14.309
    endloop
  endfacet
  facet normal 0 -1 -0
    outer loop
      vertex 3 6.95106 14.309
      vertex 0 6.95106 13.691
      vertex 3 6.95106 13.691
    endloop
  endfacet
  facet normal 0 -0.809017 0.587786
    outer loop
      vertex 0 6.58778 13.191
      vertex 3 6.95106 13.691
      vertex 0 6.95106 13.691
    endloop
  endfacet
  facet normal 0 -0.809017 0.587786
    outer loop
      vertex 3 6.95106 13.691
      vertex 0 6.58778 13.191
      vertex 3 6.58778 13.191
    endloop
  endfacet
  facet normal 0 -0.809017 -0.587786
    outer loop
      vertex 0 6.95106 14.309
      vertex 3 6.58778 14.809
      vertex 0 6.58778 14.809
    endloop
  endfacet
  facet normal 0 -0.809017 -0.587786
    outer loop
      vertex 3 6.58778 14.809
      vertex 0 6.95106 14.309
      vertex 3 6.95106 14.309
    endloop
  endfacet
  facet normal 0 0.309018 -0.951056
    outer loop
      vertex 0 5.41221 14.809
      vertex 3 6 15
      vertex 3 5.41221 14.809
    endloop
  endfacet
  facet normal 0 0.309018 -0.951056
    outer loop
      vertex 3 6 15
      vertex 0 5.41221 14.809
      vertex 0 6 15
    endloop
  endfacet
  facet normal 0 0.809017 0.587786
    outer loop
      vertex 3 5.41221 13.191
      vertex 0 5.04894 13.691
      vertex 3 5.04894 13.691
    endloop
  endfacet
  facet normal 0 0.809017 0.587786
    outer loop
      vertex 0 5.04894 13.691
      vertex 3 5.41221 13.191
      vertex 0 5.41221 13.191
    endloop
  endfacet
  facet normal 0 0.809017 -0.587786
    outer loop
      vertex 3 5.04894 14.309
      vertex 0 5.41221 14.809
      vertex 3 5.41221 14.809
    endloop
  endfacet
  facet normal 0 0.809017 -0.587786
    outer loop
      vertex 0 5.41221 14.809
      vertex 3 5.04894 14.309
      vertex 0 5.04894 14.309
    endloop
  endfacet
  facet normal -0 0.309016 0.951057
    outer loop
      vertex 0 6 13
      vertex 3 5.41221 13.191
      vertex 3 6 13
    endloop
  endfacet
  facet normal 0 0.309016 0.951057
    outer loop
      vertex 3 5.41221 13.191
      vertex 0 6 13
      vertex 0 5.41221 13.191
    endloop
  endfacet
  facet normal -1 0 0
    outer loop
      vertex 40.5 12 3
      vertex 40.5 6.95106 13.691
      vertex 40.5 12 17
    endloop
  endfacet
  facet normal -1 0 0
    outer loop
      vertex 40.5 12 3
      vertex 40.5 6.58778 13.191
      vertex 40.5 6.95106 13.691
    endloop
  endfacet
  facet normal -1 0 0
    outer loop
      vertex 40.5 12 3
      vertex 40.5 6 13
      vertex 40.5 6.58778 13.191
    endloop
  endfacet
  facet normal -1 0 0
    outer loop
      vertex 40.5 0 3
      vertex 40.5 6 13
      vertex 40.5 12 3
    endloop
  endfacet
  facet normal -1 -0 0
    outer loop
      vertex 40.5 6 13
      vertex 40.5 0 3
      vertex 40.5 5.41221 13.191
    endloop
  endfacet
  facet normal -1 0 0
    outer loop
      vertex 40.5 0 17
      vertex 40.5 5.04894 13.691
      vertex 40.5 0 3
    endloop
  endfacet
  facet normal -1 -0 0
    outer loop
      vertex 40.5 5.41221 13.191
      vertex 40.5 0 3
      vertex 40.5 5.04894 13.691
    endloop
  endfacet
  facet normal -1 0 0
    outer loop
      vertex 40.5 6.95106 14.309
      vertex 40.5 12 17
      vertex 40.5 6.95106 13.691
    endloop
  endfacet
  facet normal -1 0 0
    outer loop
      vertex 40.5 6.58778 14.809
      vertex 40.5 12 17
      vertex 40.5 6.95106 14.309
    endloop
  endfacet
  facet normal -1 0 0
    outer loop
      vertex 40.5 6 15
      vertex 40.5 12 17
      vertex 40.5 6.58778 14.809
    endloop
  endfacet
  facet normal -1 0 0
    outer loop
      vertex 40.5 0 17
      vertex 40.5 6 15
      vertex 40.5 5.41221 14.809
    endloop
  endfacet
  facet normal -1 0 0
    outer loop
      vertex 40.5 6 15
      vertex 40.5 0 17
      vertex 40.5 12 17
    endloop
  endfacet
  facet normal -1 0 0
    outer loop
      vertex 40.5 5.04894 14.309
      vertex 40.5 0 17
      vertex 40.5 5.41221 14.809
    endloop
  endfacet
  facet normal -1 0 0
    outer loop
      vertex 40.5 5.04894 13.691
      vertex 40.5 0 17
      vertex 40.5 5.04894 14.309
    endloop
  endfacet
  facet normal -0 0 1
    outer loop
      vertex 40.5 12 17
      vertex 43.5 0 17
      vertex 43.5 12 17
    endloop
  endfacet
  facet normal 0 0 1
    outer loop
      vertex 43.5 0 17
      vertex 40.5 12 17
      vertex 40.5 0 17
    endloop
  endfacet
  facet normal 1 0 0
    outer loop
      vertex 43.5 6.95106 13.691
      vertex 43.5 12 17
      vertex 43.5 6.95106 14.309
    endloop
  endfacet
  facet normal 1 0 0
    outer loop
      vertex 43.5 12 17
      vertex 43.5 6.58778 14.809
      vertex 43.5 6.95106 14.309
    endloop
  endfacet
  facet normal 1 0 0
    outer loop
      vertex 43.5 12 17
      vertex 43.5 6 15
      vertex 43.5 6.58778 14.809
    endloop
  endfacet
  facet normal 1 -0 0
    outer loop
      vertex 43.5 0 17
      vertex 43.5 6 15
      vertex 43.5 12 17
    endloop
  endfacet
  facet normal 1 0 0
    outer loop
      vertex 43.5 5.04894 14.309
      vertex 43.5 0 17
      vertex 43.5 5.04894 13.691
    endloop
  endfacet
  facet normal 1 0 0
    outer loop
      vertex 43.5 5.41221 14.809
      vertex 43.5 0 17
      vertex 43.5 5.04894 14.309
    endloop
  endfacet
  facet normal 1 0 0
    outer loop
      vertex 43.5 6 15
      vertex 43.5 0 17
      vertex 43.5 5.41221 14.809
    endloop
  endfacet
  facet normal 1 0 0
    outer loop
      vertex 43.5 12 17
      vertex 43.5 6.95106 13.691
      vertex 43.5 12 0
    endloop
  endfacet
  facet normal 1 -0 0
    outer loop
      vertex 43.5 6.58778 13.191
      vertex 43.5 12 0
      vertex 43.5 6.95106 13.691
    endloop
  endfacet
  facet normal 1 -0 0
    outer loop
      vertex 43.5 6 13
      vertex 43.5 12 0
      vertex 43.5 6.58778 13.191
    endloop
  endfacet
  facet normal 1 0 0
    outer loop
      vertex 43.5 0 0
      vertex 43.5 6 13
      vertex 43.5 5.41221 13.191
    endloop
  endfacet
  facet normal 1 0 0
    outer loop
      vertex 43.5 0 0
      vertex 43.5 5.41221 13.191
      vertex 43.5 5.04894 13.691
    endloop
  endfacet
  facet normal 1 0 0
    outer loop
      vertex 43.5 0 0
      vertex 43.5 5.04894 13.691
      vertex 43.5 0 17
    endloop
  endfacet
  facet normal 1 0 0
    outer loop
      vertex 43.5 6 13
      vertex 43.5 0 0
      vertex 43.5 12 0
    endloop
  endfacet
  facet normal 0 -0.309017 0.951057
    outer loop
      vertex 40.5 6.58778 13.191
      vertex 43.5 6 13
      vertex 43.5 6.58778 13.191
    endloop
  endfacet
  facet normal 0 -0.309017 0.951057
    outer loop
      vertex 43.5 6 13
      vertex 40.5 6.58778 13.191
      vertex 40.5 6 13
    endloop
  endfacet
  facet normal 0 -0.309018 -0.951056
    outer loop
      vertex 40.5 6 15
      vertex 43.5 6.58778 14.809
      vertex 43.5 6 15
    endloop
  endfacet
  facet normal -0 -0.309018 -0.951056
    outer loop
      vertex 43.5 6.58778 14.809
      vertex 40.5 6 15
      vertex 40.5 6.58778 14.809
    endloop
  endfacet
  facet normal 0 -0.809017 0.587786
    outer loop
      vertex 40.5 6.58778 13.191
      vertex 43.5 6.95106 13.691
      vertex 40.5 6.95106 13.691
    endloop
  endfacet
  facet normal 0 -0.809017 0.587786
    outer loop
      vertex 43.5 6.95106 13.691
      vertex 40.5 6.58778 13.191
      vertex 43.5 6.58778 13.191
    endloop
  endfacet
  facet normal 0 -0.809017 -0.587786
    outer loop
      vertex 40.5 6.95106 14.309
      vertex 43.5 6.58778 14.809
      vertex 40.5 6.58778 14.809
    endloop
  endfacet
  facet normal 0 -0.809017 -0.587786
    outer loop
      vertex 43.5 6.58778 14.809
      vertex 40.5 6.95106 14.309
      vertex 43.5 6.95106 14.309
    endloop
  endfacet
  facet normal 0 0.309018 -0.951056
    outer loop
      vertex 40.5 5.41221 14.809
      vertex 43.5 6 15
      vertex 43.5 5.41221 14.809
    endloop
  endfacet
  facet normal 0 0.309018 -0.951056
    outer loop
      vertex 43.5 6 15
      vertex 40.5 5.41221 14.809
      vertex 40.5 6 15
    endloop
  endfacet
  facet normal 0 -1 0
    outer loop
      vertex 40.5 6.95106 13.691
      vertex 43.5 6.95106 14.309
      vertex 40.5 6.95106 14.309
    endloop
  endfacet
  facet normal 0 -1 -0
    outer loop
      vertex 43.5 6.95106 14.309
      vertex 40.5 6.95106 13.691
      vertex 43.5 6.95106 13.691
    endloop
  endfacet
  facet normal 0 1 -0
    outer loop
      vertex 43.5 5.04894 13.691
      vertex 40.5 5.04894 14.309
      vertex 43.5 5.04894 14.309
    endloop
  endfacet
  facet normal 0 1 0
    outer loop
      vertex 40.5 5.04894 14.309
      vertex 43.5 5.04894 13.691
      vertex 40.5 5.04894 13.691
    endloop
  endfacet
  facet normal 0 0.809017 0.587786
    outer loop
      vertex 43.5 5.41221 13.191
      vertex 40.5 5.04894 13.691
      vertex 43.5 5.04894 13.691
    endloop
  endfacet
  facet normal 0 0.809017 0.587786
    outer loop
      vertex 40.5 5.04894 13.691
      vertex 43.5 5.41221 13.191
      vertex 40.5 5.41221 13.191
    endloop
  endfacet
  facet normal 0 0.809017 -0.587786
    outer loop
      vertex 43.5 5.04894 14.309
      vertex 40.5 5.41221 14.809
      vertex 43.5 5.41221 14.809
    endloop
  endfacet
  facet normal 0 0.809017 -0.587786
    outer loop
      vertex 40.5 5.41221 14.809
      vertex 43.5 5.04894 14.309
      vertex 40.5 5.04894 14.309
    endloop
  endfacet
  facet normal -0 0.309016 0.951057
    outer loop
      vertex 40.5 6 13
      vertex 43.5 5.41221 13.191
      vertex 43.5 6 13
    endloop
  endfacet
  facet normal 0 0.309016 0.951057
    outer loop
      vertex 43.5 5.41221 13.191
      vertex 40.5 6 13
      vertex 40.5 5.41221 13.191
    endloop
  endfacet
  facet normal -0 0 1
    outer loop
      vertex 3 12 3
      vertex 40.5 0 3
      vertex 40.5 12 3
    endloop
  endfacet
  facet normal 0 0 1
    outer loop
      vertex 40.5 0 3
      vertex 3 12 3
      vertex 3 0 3
    endloop
  endfacet
endsolid OpenSCAD_Model
