solid OpenSCAD_Model
  facet normal -1 0 0
    outer loop
      vertex 0 10 0
      vertex 0 5.95106 8.69098
      vertex 0 10 12
    endloop
  endfacet
  facet normal -1 0 0
    outer loop
      vertex 0 10 0
      vertex 0 5.58778 8.19098
      vertex 0 5.95106 8.69098
    endloop
  endfacet
  facet normal -1 0 0
    outer loop
      vertex 0 10 0
      vertex 0 5 8
      vertex 0 5.58778 8.19098
    endloop
  endfacet
  facet normal -1 0 0
    outer loop
      vertex 0 0 0
      vertex 0 5 8
      vertex 0 10 0
    endloop
  endfacet
  facet normal -1 -0 0
    outer loop
      vertex 0 5 8
      vertex 0 0 0
      vertex 0 4.41221 8.19098
    endloop
  endfacet
  facet normal -1 0 0
    outer loop
      vertex 0 0 12
      vertex 0 4.04894 8.69098
      vertex 0 0 0
    endloop
  endfacet
  facet normal -1 -0 0
    outer loop
      vertex 0 4.41221 8.19098
      vertex 0 0 0
      vertex 0 4.04894 8.69098
    endloop
  endfacet
  facet normal -1 0 0
    outer loop
      vertex 0 5.95106 9.30902
      vertex 0 10 12
      vertex 0 5.95106 8.69098
    endloop
  endfacet
  facet normal -1 0 0
    outer loop
      vertex 0 5.58778 9.80902
      vertex 0 10 12
      vertex 0 5.95106 9.30902
    endloop
  endfacet
  facet normal -1 0 0
    outer loop
      vertex 0 5 10
      vertex 0 10 12
      vertex 0 5.58778 9.80902
    endloop
  endfacet
  facet normal -1 0 0
    outer loop
      vertex 0 0 12
      vertex 0 5 10
      vertex 0 4.41221 9.80902
    endloop
  endfacet
  facet normal -1 0 0
    outer loop
      vertex 0 5 10
      vertex 0 0 12
      vertex 0 10 12
    endloop
  endfacet
  facet normal -1 0 0
    outer loop
      vertex 0 4.04894 9.30902
      vertex 0 0 12
      vertex 0 4.41221 9.80902
    endloop
  endfacet
  facet normal -1 0 0
    outer loop
      vertex 0 4.04894 8.69098
      vertex 0 0 12
      vertex 0 4.04894 9.30902
    endloop
  endfacet
  facet normal -0 0 1
    outer loop
      vertex 0 10 12
      vertex 3 0 12
      vertex 3 10 12
    endloop
  endfacet
  facet normal 0 0 1
    outer loop
      vertex 3 0 12
      vertex 0 10 12
      vertex 0 0 12
    endloop
  endfacet
  facet normal 1 0 0
    outer loop
      vertex 3 5.95106 8.69098
      vertex 3 10 12
      vertex 3 5.95106 9.30902
    endloop
  endfacet
  facet normal 1 0 0
    outer loop
      vertex 3 10 12
      vertex 3 5.58778 9.80902
      vertex 3 5.95106 9.30902
    endloop
  endfacet
  facet normal 1 0 0
    outer loop
      vertex 3 10 12
      vertex 3 5 10
      vertex 3 5.58778 9.80902
    endloop
  endfacet
  facet normal 1 -0 0
    outer loop
      vertex 3 0 12
      vertex 3 5 10
      vertex 3 10 12
    endloop
  endfacet
  facet normal 1 0 0
    outer loop
      vertex 3 4.04894 9.30902
      vertex 3 0 12
      vertex 3 4.04894 8.69098
    endloop
  endfacet
  facet normal 1 0 0
    outer loop
      vertex 3 4.41221 9.80902
      vertex 3 0 12
      vertex 3 4.04894 9.30902
    endloop
  endfacet
  facet normal 1 0 0
    outer loop
      vertex 3 5 10
      vertex 3 0 12
      vertex 3 4.41221 9.80902
    endloop
  endfacet
  facet normal 1 0 0
    outer loop
      vertex 3 10 12
      vertex 3 5.95106 8.69098
      vertex 3 10 3
    endloop
  endfacet
  facet normal 1 -0 0
    outer loop
      vertex 3 5.58778 8.19098
      vertex 3 10 3
      vertex 3 5.95106 8.69098
    endloop
  endfacet
  facet normal 1 -0 0
    outer loop
      vertex 3 5 8
      vertex 3 10 3
      vertex 3 5.58778 8.19098
    endloop
  endfacet
  facet normal 1 0 0
    outer loop
      vertex 3 0 3
      vertex 3 5 8
      vertex 3 4.41221 8.19098
    endloop
  endfacet
  facet normal 1 0 0
    outer loop
      vertex 3 0 3
      vertex 3 4.04894 8.69098
      vertex 3 0 12
    endloop
  endfacet
  facet normal 1 0 0
    outer loop
      vertex 3 4.04894 8.69098
      vertex 3 0 3
      vertex 3 4.41221 8.19098
    endloop
  endfacet
  facet normal 1 0 0
    outer loop
      vertex 3 5 8
      vertex 3 0 3
      vertex 3 10 3
    endloop
  endfacet
  facet normal 0 1 0
    outer loop
      vertex 46 10 12
      vertex 43 10 3
      vertex 43 10 12
    endloop
  endfacet
  facet normal 0 1 0
    outer loop
      vertex 43 10 3
      vertex 46 10 0
      vertex 3 10 3
    endloop
  endfacet
  facet normal 0 1 -0
    outer loop
      vertex 46 10 0
      vertex 43 10 3
      vertex 46 10 12
    endloop
  endfacet
  facet normal 0 1 -0
    outer loop
      vertex 3 10 3
      vertex 0 10 12
      vertex 3 10 12
    endloop
  endfacet
  facet normal 0 1 0
    outer loop
      vertex 3 10 3
      vertex 0 10 0
      vertex 0 10 12
    endloop
  endfacet
  facet normal 0 1 0
    outer loop
      vertex 0 10 0
      vertex 3 10 3
      vertex 46 10 0
    endloop
  endfacet
  facet normal 0 0 -1
    outer loop
      vertex 0 0 0
      vertex 46 10 0
      vertex 46 0 0
    endloop
  endfacet
  facet normal -0 0 -1
    outer loop
      vertex 46 10 0
      vertex 0 0 0
      vertex 0 10 0
    endloop
  endfacet
  facet normal 0 -1 0
    outer loop
      vertex 0 0 12
      vertex 3 0 3
      vertex 3 0 12
    endloop
  endfacet
  facet normal 0 -1 -0
    outer loop
      vertex 3 0 3
      vertex 0 0 0
      vertex 43 0 3
    endloop
  endfacet
  facet normal 0 -1 0
    outer loop
      vertex 0 0 0
      vertex 3 0 3
      vertex 0 0 12
    endloop
  endfacet
  facet normal 0 -1 0
    outer loop
      vertex 43 0 3
      vertex 46 0 12
      vertex 43 0 12
    endloop
  endfacet
  facet normal 0 -1 0
    outer loop
      vertex 43 0 3
      vertex 46 0 0
      vertex 46 0 12
    endloop
  endfacet
  facet normal 0 -1 0
    outer loop
      vertex 46 0 0
      vertex 43 0 3
      vertex 0 0 0
    endloop
  endfacet
  facet normal 0 -0.309017 0.951057
    outer loop
      vertex 0 5.58778 8.19098
      vertex 3 5 8
      vertex 3 5.58778 8.19098
    endloop
  endfacet
  facet normal 0 -0.309017 0.951057
    outer loop
      vertex 3 5 8
      vertex 0 5.58778 8.19098
      vertex 0 5 8
    endloop
  endfacet
  facet normal 0 -0.309018 -0.951056
    outer loop
      vertex 0 5 10
      vertex 3 5.58778 9.80902
      vertex 3 5 10
    endloop
  endfacet
  facet normal -0 -0.309018 -0.951056
    outer loop
      vertex 3 5.58778 9.80902
      vertex 0 5 10
      vertex 0 5.58778 9.80902
    endloop
  endfacet
  facet normal 0 1 -0
    outer loop
      vertex 3 4.04894 8.69098
      vertex 0 4.04894 9.30902
      vertex 3 4.04894 9.30902
    endloop
  endfacet
  facet normal 0 1 0
    outer loop
      vertex 0 4.04894 9.30902
      vertex 3 4.04894 8.69098
      vertex 0 4.04894 8.69098
    endloop
  endfacet
  facet normal 0 -1 0
    outer loop
      vertex 0 5.95106 8.69098
      vertex 3 5.95106 9.30902
      vertex 0 5.95106 9.30902
    endloop
  endfacet
  facet normal 0 -1 -0
    outer loop
      vertex 3 5.95106 9.30902
      vertex 0 5.95106 8.69098
      vertex 3 5.95106 8.69098
    endloop
  endfacet
  facet normal 0 -0.809017 0.587786
    outer loop
      vertex 0 5.58778 8.19098
      vertex 3 5.95106 8.69098
      vertex 0 5.95106 8.69098
    endloop
  endfacet
  facet normal 0 -0.809017 0.587786
    outer loop
      vertex 3 5.95106 8.69098
      vertex 0 5.58778 8.19098
      vertex 3 5.58778 8.19098
    endloop
  endfacet
  facet normal 0 -0.809017 -0.587786
    outer loop
      vertex 0 5.95106 9.30902
      vertex 3 5.58778 9.80902
      vertex 0 5.58778 9.80902
    endloop
  endfacet
  facet normal 0 -0.809017 -0.587786
    outer loop
      vertex 3 5.58778 9.80902
      vertex 0 5.95106 9.30902
      vertex 3 5.95106 9.30902
    endloop
  endfacet
  facet normal 0 0.309018 -0.951056
    outer loop
      vertex 0 4.41221 9.80902
      vertex 3 5 10
      vertex 3 4.41221 9.80902
    endloop
  endfacet
  facet normal 0 0.309018 -0.951056
    outer loop
      vertex 3 5 10
      vertex 0 4.41221 9.80902
      vertex 0 5 10
    endloop
  endfacet
  facet normal 0 0.809017 0.587786
    outer loop
      vertex 3 4.41221 8.19098
      vertex 0 4.04894 8.69098
      vertex 3 4.04894 8.69098
    endloop
  endfacet
  facet normal 0 0.809017 0.587786
    outer loop
      vertex 0 4.04894 8.69098
      vertex 3 4.41221 8.19098
      vertex 0 4.41221 8.19098
    endloop
  endfacet
  facet normal 0 0.809017 -0.587786
    outer loop
      vertex 3 4.04894 9.30902
      vertex 0 4.41221 9.80902
      vertex 3 4.41221 9.80902
    endloop
  endfacet
  facet normal 0 0.809017 -0.587786
    outer loop
      vertex 0 4.41221 9.80902
      vertex 3 4.04894 9.30902
      vertex 0 4.04894 9.30902
    endloop
  endfacet
  facet normal -0 0.309016 0.951057
    outer loop
      vertex 0 5 8
      vertex 3 4.41221 8.19098
      vertex 3 5 8
    endloop
  endfacet
  facet normal 0 0.309016 0.951057
    outer loop
      vertex 3 4.41221 8.19098
      vertex 0 5 8
      vertex 0 4.41221 8.19098
    endloop
  endfacet
  facet normal -1 0 0
    outer loop
      vertex 43 10 3
      vertex 43 5.95106 8.69098
      vertex 43 10 12
    endloop
  endfacet
  facet normal -1 0 0
    outer loop
      vertex 43 10 3
      vertex 43 5.58778 8.19098
      vertex 43 5.95106 8.69098
    endloop
  endfacet
  facet normal -1 0 0
    outer loop
      vertex 43 10 3
      vertex 43 5 8
      vertex 43 5.58778 8.19098
    endloop
  endfacet
  facet normal -1 0 0
    outer loop
      vertex 43 0 3
      vertex 43 5 8
      vertex 43 10 3
    endloop
  endfacet
  facet normal -1 0 0
    outer loop
      vertex 43 0 12
      vertex 43 4.04894 8.69098
      vertex 43 0 3
    endloop
  endfacet
  facet normal -1 -0 0
    outer loop
      vertex 43 4.41221 8.19098
      vertex 43 0 3
      vertex 43 4.04894 8.69098
    endloop
  endfacet
  facet normal -1 -0 0
    outer loop
      vertex 43 5 8
      vertex 43 0 3
      vertex 43 4.41221 8.19098
    endloop
  endfacet
  facet normal -1 0 0
    outer loop
      vertex 43 5.95106 9.30902
      vertex 43 10 12
      vertex 43 5.95106 8.69098
    endloop
  endfacet
  facet normal -1 0 0
    outer loop
      vertex 43 5.58778 9.80902
      vertex 43 10 12
      vertex 43 5.95106 9.30902
    endloop
  endfacet
  facet normal -1 0 0
    outer loop
      vertex 43 5 10
      vertex 43 10 12
      vertex 43 5.58778 9.80902
    endloop
  endfacet
  facet normal -1 0 0
    outer loop
      vertex 43 0 12
      vertex 43 5 10
      vertex 43 4.41221 9.80902
    endloop
  endfacet
  facet normal -1 0 0
    outer loop
      vertex 43 5 10
      vertex 43 0 12
      vertex 43 10 12
    endloop
  endfacet
  facet normal -1 0 0
    outer loop
      vertex 43 4.04894 9.30902
      vertex 43 0 12
      vertex 43 4.41221 9.80902
    endloop
  endfacet
  facet normal -1 0 0
    outer loop
      vertex 43 4.04894 8.69098
      vertex 43 0 12
      vertex 43 4.04894 9.30902
    endloop
  endfacet
  facet normal -0 0 1
    outer loop
      vertex 43 10 12
      vertex 46 0 12
      vertex 46 10 12
    endloop
  endfacet
  facet normal 0 0 1
    outer loop
      vertex 46 0 12
      vertex 43 10 12
      vertex 43 0 12
    endloop
  endfacet
  facet normal 1 -0 0
    outer loop
      vertex 46 0 12
      vertex 46 10 0
      vertex 46 10 12
    endloop
  endfacet
  facet normal 1 0 0
    outer loop
      vertex 46 10 0
      vertex 46 0 12
      vertex 46 0 0
    endloop
  endfacet
  facet normal 0 -0.309017 0.951057
    outer loop
      vertex 43 5.58778 8.19098
      vertex 45 5 8
      vertex 45 5.58778 8.19098
    endloop
  endfacet
  facet normal 0 -0.309017 0.951057
    outer loop
      vertex 45 5 8
      vertex 43 5.58778 8.19098
      vertex 43 5 8
    endloop
  endfacet
  facet normal 0 -0.309018 -0.951056
    outer loop
      vertex 43 5 10
      vertex 45 5.58778 9.80902
      vertex 45 5 10
    endloop
  endfacet
  facet normal -0 -0.309018 -0.951056
    outer loop
      vertex 45 5.58778 9.80902
      vertex 43 5 10
      vertex 43 5.58778 9.80902
    endloop
  endfacet
  facet normal 0 -0.809017 0.587786
    outer loop
      vertex 43 5.58778 8.19098
      vertex 45 5.95106 8.69098
      vertex 43 5.95106 8.69098
    endloop
  endfacet
  facet normal 0 -0.809017 0.587786
    outer loop
      vertex 45 5.95106 8.69098
      vertex 43 5.58778 8.19098
      vertex 45 5.58778 8.19098
    endloop
  endfacet
  facet normal 0 -0.809017 -0.587786
    outer loop
      vertex 43 5.95106 9.30902
      vertex 45 5.58778 9.80902
      vertex 43 5.58778 9.80902
    endloop
  endfacet
  facet normal 0 -0.809017 -0.587786
    outer loop
      vertex 45 5.58778 9.80902
      vertex 43 5.95106 9.30902
      vertex 45 5.95106 9.30902
    endloop
  endfacet
  facet normal 0 0.309018 -0.951056
    outer loop
      vertex 43 4.41221 9.80902
      vertex 45 5 10
      vertex 45 4.41221 9.80902
    endloop
  endfacet
  facet normal 0 0.309018 -0.951056
    outer loop
      vertex 45 5 10
      vertex 43 4.41221 9.80902
      vertex 43 5 10
    endloop
  endfacet
  facet normal 0 -1 0
    outer loop
      vertex 43 5.95106 8.69098
      vertex 45 5.95106 9.30902
      vertex 43 5.95106 9.30902
    endloop
  endfacet
  facet normal 0 -1 -0
    outer loop
      vertex 45 5.95106 9.30902
      vertex 43 5.95106 8.69098
      vertex 45 5.95106 8.69098
    endloop
  endfacet
  facet normal 0 1 -0
    outer loop
      vertex 45 4.04894 8.69098
      vertex 43 4.04894 9.30902
      vertex 45 4.04894 9.30902
    endloop
  endfacet
  facet normal 0 1 0
    outer loop
      vertex 43 4.04894 9.30902
      vertex 45 4.04894 8.69098
      vertex 43 4.04894 8.69098
    endloop
  endfacet
  facet normal 0 0.809017 0.587786
    outer loop
      vertex 45 4.41221 8.19098
      vertex 43 4.04894 8.69098
      vertex 45 4.04894 8.69098
    endloop
  endfacet
  facet normal 0 0.809017 0.587786
    outer loop
      vertex 43 4.04894 8.69098
      vertex 45 4.41221 8.19098
      vertex 43 4.41221 8.19098
    endloop
  endfacet
  facet normal 0 0.809017 -0.587786
    outer loop
      vertex 45 4.04894 9.30902
      vertex 43 4.41221 9.80902
      vertex 45 4.41221 9.80902
    endloop
  endfacet
  facet normal 0 0.809017 -0.587786
    outer loop
      vertex 43 4.41221 9.80902
      vertex 45 4.04894 9.30902
      vertex 43 4.04894 9.30902
    endloop
  endfacet
  facet normal -0 0.309016 0.951057
    outer loop
      vertex 43 5 8
      vertex 45 4.41221 8.19098
      vertex 45 5 8
    endloop
  endfacet
  facet normal 0 0.309016 0.951057
    outer loop
      vertex 45 4.41221 8.19098
      vertex 43 5 8
      vertex 43 4.41221 8.19098
    endloop
  endfacet
  facet normal -1 0 0
    outer loop
      vertex 45 5.58778 8.19098
      vertex 45 5.95106 9.30902
      vertex 45 5.95106 8.69098
    endloop
  endfacet
  facet normal -1 0 0
    outer loop
      vertex 45 5.58778 8.19098
      vertex 45 5.58778 9.80902
      vertex 45 5.95106 9.30902
    endloop
  endfacet
  facet normal -1 0 0
    outer loop
      vertex 45 5 8
      vertex 45 5.58778 9.80902
      vertex 45 5.58778 8.19098
    endloop
  endfacet
  facet normal -1 0 0
    outer loop
      vertex 45 5 8
      vertex 45 5 10
      vertex 45 5.58778 9.80902
    endloop
  endfacet
  facet normal -1 0 0
    outer loop
      vertex 45 4.41221 8.19098
      vertex 45 5 10
      vertex 45 5 8
    endloop
  endfacet
  facet normal -1 0 0
    outer loop
      vertex 45 4.41221 8.19098
      vertex 45 4.41221 9.80902
      vertex 45 5 10
    endloop
  endfacet
  facet normal -1 0 0
    outer loop
      vertex 45 4.04894 8.69098
      vertex 45 4.41221 9.80902
      vertex 45 4.41221 8.19098
    endloop
  endfacet
  facet normal -1 0 0
    outer loop
      vertex 45 4.41221 9.80902
      vertex 45 4.04894 8.69098
      vertex 45 4.04894 9.30902
    endloop
  endfacet
  facet normal -0 0 1
    outer loop
      vertex 3 10 3
      vertex 43 0 3
      vertex 43 10 3
    endloop
  endfacet
  facet normal 0 0 1
    outer loop
      vertex 43 0 3
      vertex 3 10 3
      vertex 3 0 3
    endloop
  endfacet
endsolid OpenSCAD_Model
